<svg width="43" height="43" viewBox="0 0 43 43" fill="none" xmlns="http://www.w3.org/2000/svg">
<path fill-rule="evenodd" clip-rule="evenodd" d="M21.3735 0C22.0452 0 23.127 0.0522373 23.7726 0.121887C24.4181 0.182831 25.4039 0.339542 25.9535 0.461429C26.5031 0.583316 27.2883 0.774853 27.6983 0.89674C28.1083 1.00992 28.7539 1.23628 29.1378 1.38429C29.5216 1.53229 30.1148 1.77607 30.4463 1.92407C30.7778 2.07208 31.406 2.3855 31.8422 2.62928C32.2784 2.86434 33.0373 3.33448 33.5433 3.67402C34.0493 4.01357 34.7385 4.50111 35.07 4.7623C35.4015 5.03219 36.1692 5.7374 36.7712 6.33813C37.3731 6.93885 38.2019 7.88783 38.6206 8.43632C39.0306 8.98481 39.5628 9.75096 39.8071 10.134C40.0426 10.5171 40.4526 11.2571 40.7231 11.7882C40.9935 12.3193 41.3948 13.216 41.6129 13.7906C41.8397 14.3653 42.1712 15.4187 42.3544 16.1413C42.5376 16.8552 42.7557 17.9174 42.843 18.492C42.9651 19.2669 43 20.0504 43 21.4956C43 22.9409 42.9651 23.7244 42.843 24.4993C42.7557 25.0739 42.5376 26.1274 42.3544 26.85C42.1712 27.5639 41.8397 28.626 41.6129 29.2006C41.3948 29.7753 40.9935 30.6807 40.7231 31.2031C40.4526 31.7254 40.0426 32.4742 39.8071 32.8573C39.5628 33.2403 39.0306 34.0065 38.6206 34.555C38.2106 35.1035 37.3556 36.0699 36.7275 36.688C36.1081 37.3148 35.1398 38.1593 34.5902 38.5685C34.0406 38.9777 33.2729 39.5088 32.889 39.7526C32.5052 39.9964 31.7985 40.3968 31.3187 40.6406C30.8389 40.8844 29.9578 41.2849 29.3559 41.5199C28.7539 41.7463 27.9164 42.0423 27.4802 42.1555C27.044 42.2774 26.3025 42.4602 25.8227 42.5647C25.3429 42.6692 24.4181 42.8085 23.7726 42.8694C23.127 42.9391 22.1063 43 21.5044 43C20.9024 43 19.8817 42.9391 19.2362 42.8694C18.5906 42.8085 17.6659 42.6692 17.186 42.5647C16.7062 42.4602 15.9647 42.2774 15.5285 42.1555C15.0923 42.0423 14.2548 41.7463 13.6529 41.5199C13.0509 41.2849 12.1698 40.8844 11.69 40.6406C11.2102 40.3968 10.5036 39.9876 10.1197 39.7439C9.73585 39.5001 9.20369 39.1519 8.94198 38.969C8.68026 38.7862 8.06959 38.3161 7.5985 37.9243C7.12741 37.5325 6.35971 36.8186 5.90607 36.3397C5.45242 35.8609 4.75451 35.0338 4.36194 34.5114C3.96064 33.9891 3.44593 33.2403 3.20166 32.8573C2.96612 32.4742 2.5561 31.7254 2.28566 31.2031C2.02394 30.6807 1.64881 29.8536 1.45689 29.3748C1.26496 28.8959 0.985798 28.095 0.846216 27.59C0.69791 27.085 0.497261 26.2841 0.401298 25.8052C0.305336 25.3264 0.174478 24.5864 0.11341 24.151C0.0523433 23.707 0 22.5491 0 21.4956C0 20.4422 0.0523433 19.2843 0.11341 18.8403C0.174478 18.4136 0.305336 17.6649 0.401298 17.1861C0.497261 16.7072 0.689186 15.9237 0.828768 15.4448C0.968351 14.966 1.22134 14.1998 1.39582 13.7471C1.57902 13.2944 1.95415 12.4586 2.23331 11.8927C2.51248 11.3355 2.94867 10.5519 3.19294 10.1514C3.43721 9.75967 3.97809 8.98481 4.38811 8.43632C4.80686 7.88783 5.63563 6.93885 6.23757 6.33813C6.83952 5.7374 7.5985 5.03219 7.93873 4.7623C8.27896 4.50111 8.95942 4.01357 9.46541 3.67402C9.97139 3.33448 10.7304 2.86434 11.1666 2.62928C11.6028 2.3855 12.2222 2.07208 12.5624 1.92407C12.9026 1.77607 13.4871 1.53229 13.871 1.38429C14.2548 1.23628 14.9004 1.00992 15.3104 0.89674C15.7204 0.774853 16.5056 0.583316 17.0552 0.461429C17.6048 0.339542 18.5295 0.191537 19.1053 0.121887C19.6811 0.0609435 20.7018 0.00870622 21.3735 0ZM6.89186 13.2857C6.84824 13.3118 6.82207 17.0381 6.8308 21.5566L6.84825 29.7666C14.1152 29.7056 14.9353 29.6795 15.3976 29.5663C15.7117 29.488 16.1828 29.3487 16.4445 29.2616C16.7062 29.1658 17.1773 28.9656 17.4914 28.8089C17.8054 28.6522 18.2765 28.3736 18.5382 28.1994C18.8 28.0166 19.2274 27.6596 19.4891 27.4072C19.7421 27.146 20.1085 26.7455 20.283 26.5017C20.4662 26.2667 20.7541 25.8139 20.9286 25.5005C21.0943 25.1871 21.3386 24.6473 21.4607 24.3078C21.5829 23.9595 21.7399 23.3327 21.8097 22.9148C21.8795 22.4882 21.9406 21.8526 21.9406 21.4956C21.9406 21.1387 21.8795 20.4944 21.801 20.0591C21.7312 19.6238 21.5393 18.9447 21.391 18.5355C21.2339 18.1263 20.9722 17.5691 20.8065 17.2818C20.6407 17.0032 20.3005 16.5331 20.0649 16.2458C19.8207 15.9498 19.3059 15.4535 18.9134 15.1401C18.5295 14.8267 17.884 14.4088 17.4827 14.2085C17.0814 14.0083 16.4183 13.7471 16.0083 13.6339C15.5983 13.512 14.8568 13.3727 14.3508 13.3205C13.8448 13.2683 11.9779 13.2247 10.1982 13.2247C8.41854 13.2247 6.93548 13.2509 6.89186 13.2857ZM24.4705 29.7666H35.986V26.8935H27.6983V22.7145H35.2009L35.1572 19.9721L27.6983 19.9285V16.0978L35.8551 16.0543L35.8988 13.2247H24.4705V29.7666ZM10.0761 16.0978H12.039C13.522 16.0978 14.1589 16.1326 14.6299 16.2371C14.9789 16.3154 15.5721 16.5418 15.9473 16.7421C16.3747 16.9597 16.8371 17.2992 17.1599 17.6214C17.5088 17.9783 17.788 18.3701 18.0235 18.8403C18.2155 19.2233 18.4248 19.8328 18.5033 20.1897C18.5993 20.6511 18.6342 21.1213 18.5993 21.8004C18.5731 22.5317 18.5033 22.9235 18.3201 23.4545C18.1893 23.8376 17.9799 24.3252 17.8578 24.5428C17.7269 24.7518 17.4041 25.161 17.1424 25.4396C16.7935 25.8139 16.4707 26.049 15.9647 26.2928C15.5808 26.4843 14.9963 26.6933 14.6561 26.7629C14.2286 26.85 13.4609 26.8935 10.0761 26.8935V16.0978Z" fill="#131A3F"/>
</svg>
