<svg width="43" height="43" viewBox="0 0 43 43" fill="none" xmlns="http://www.w3.org/2000/svg">
<circle cx="21.5" cy="21.5" r="21.5" fill="#131A3F"/>
<path d="M9.72 30V27.48H14.136C15.288 27.48 16.296 27.232 17.16 26.736C18.04 26.24 18.72 25.552 19.2 24.672C19.696 23.776 19.944 22.744 19.944 21.576C19.944 20.424 19.696 19.408 19.2 18.528C18.704 17.648 18.016 16.96 17.136 16.464C16.272 15.968 15.272 15.72 14.136 15.72H9.72V13.2H14.208C15.424 13.2 16.552 13.416 17.592 13.848C18.632 14.264 19.536 14.856 20.304 15.624C21.088 16.376 21.696 17.264 22.128 18.288C22.56 19.296 22.776 20.4 22.776 21.6C22.776 22.784 22.56 23.888 22.128 24.912C21.696 25.936 21.096 26.832 20.328 27.6C19.56 28.352 18.656 28.944 17.616 29.376C16.576 29.792 15.456 30 14.256 30H9.72ZM7.824 30V13.2H10.584V30H7.824ZM24.3896 30V13.2H27.1496V30H24.3896ZM26.2856 30V27.48H35.6936V30H26.2856ZM26.2856 22.632V20.208H34.8776V22.632H26.2856ZM26.2856 15.72V13.2H35.5736V15.72H26.2856Z" fill="white"/>
</svg>
