<svg width="43" height="43" viewBox="0 0 43 43" fill="none" xmlns="http://www.w3.org/2000/svg">
<g clip-path="url(#clip0_232_37)">
<path fill-rule="evenodd" clip-rule="evenodd" d="M22.3505 0.122094C24.124 0.170957 25.8002 0.390844 26.9663 0.708457C27.9624 0.977207 29.5658 1.53914 30.4889 1.95448C31.4121 2.39425 32.9912 3.29823 33.9872 3.98232C34.9833 4.69084 36.3923 5.91243 37.1211 6.71868C37.8742 7.52493 39.016 9.01528 39.6477 10.017C40.3036 11.0187 41.1539 12.7045 41.5426 13.755C41.9556 14.7812 42.4415 16.5891 42.6358 17.7619C42.8302 18.959 43.0002 20.6204 43.0002 21.4999C43.0002 22.3795 42.8302 24.0408 42.6358 25.238C42.4415 26.4107 41.9556 28.2187 41.5426 29.2448C41.1539 30.2954 40.3036 31.9812 39.6477 32.9829C39.016 33.9846 37.8742 35.4749 37.1211 36.2812C36.3923 37.0874 34.9833 38.309 33.9872 39.0176C32.9912 39.7016 31.4121 40.6056 30.4889 41.0454C29.5658 41.4607 27.9138 42.0471 26.8449 42.3403C25.3144 42.7556 24.2211 42.8533 21.6217 42.8533C19.0223 42.8533 17.929 42.7556 16.3985 42.3403C15.3296 42.0471 13.7019 41.4607 12.7545 41.0454C11.807 40.6056 10.2522 39.7016 9.25616 39.0176C8.26011 38.309 6.85107 37.0874 6.12226 36.2812C5.36915 35.4749 4.22734 33.9846 3.59571 32.9829C2.93977 31.9812 2.08949 30.2954 1.70079 29.2448C1.2878 28.2187 0.801921 26.4107 0.607571 25.238C0.413221 24.0408 0.243164 22.3795 0.243164 21.4999C0.243164 20.6204 0.413221 18.959 0.607571 17.7619C0.801921 16.5891 1.2878 14.7812 1.70079 13.755C2.08949 12.7045 2.93977 11.0187 3.59571 10.017C4.22734 9.01528 5.36915 7.52493 6.12226 6.71868C6.85107 5.91243 8.26011 4.69084 9.25616 3.98232C10.2522 3.29823 11.807 2.39425 12.7545 1.95448C13.7019 1.53914 15.281 0.977207 16.2771 0.732889C17.2731 0.464139 18.4149 0.219821 18.8279 0.146526C19.2409 0.097662 20.82 0.0732302 22.3505 0.122094ZM9.8878 6.963C9.52339 7.15846 9.06181 7.67153 8.86746 8.06243C8.55164 8.67323 8.50305 10.4323 8.50305 19.0079C8.50305 27.3636 8.57593 29.4158 8.86746 30.4908C9.13469 31.3948 9.54768 32.0789 10.3737 32.934C11.1754 33.7158 11.9771 34.2289 12.8759 34.5465C13.8234 34.8886 14.6008 34.9863 15.5482 34.8886C16.2771 34.8153 17.3217 34.5465 17.8562 34.2778C18.3906 33.9846 19.2409 33.3249 19.7268 32.763C20.2369 32.2255 20.8443 31.346 21.0629 30.8573C21.4273 30.0511 21.5002 28.7318 21.5731 20.1562C21.6217 14.7812 21.5974 9.91925 21.5245 9.33289C21.4273 8.67323 21.1115 8.01357 20.6742 7.5005L19.9697 6.71868C11.4669 6.62096 10.4466 6.66982 9.8878 6.963ZM24.1968 10.0414L23.5166 10.53L23.5652 28.9516L33.8172 18.6903C33.5742 16.2715 33.4771 16.1738 30.1974 12.8999C26.9906 9.69937 26.7963 9.52834 25.8488 9.52834C25.2172 9.52834 24.6098 9.69937 24.1968 10.0414ZM27.2821 28.3653L20.7714 34.9374C33.2584 34.9374 34.6189 34.8641 35.2262 34.571C35.6392 34.3755 36.1251 33.838 36.3437 33.3982C36.6595 32.7386 36.7081 31.859 36.6595 28.0477C36.5624 23.5278 36.5624 23.4545 35.955 22.8437C35.6149 22.5016 35.0076 22.1352 34.5703 22.013C33.7929 21.7931 33.7686 21.842 27.2821 28.3653ZM14.8923 26.8749C15.3296 26.8749 15.8641 27.0704 16.107 27.3147C16.3499 27.5346 16.5443 28.0232 16.52 28.3897C16.52 28.7806 16.3014 29.2937 16.0341 29.5624C15.7669 29.8312 15.3296 30.0511 15.0624 30.0511C14.7951 30.0511 14.3093 29.7823 13.9692 29.4403C13.629 29.0982 13.3618 28.634 13.3375 28.3897C13.3132 28.1454 13.4833 27.7056 13.7262 27.4124C13.9934 27.046 14.3579 26.8749 14.8923 26.8749Z" fill="#131A3F"/>
</g>
<defs>
<clipPath id="clip0_232_37">
<rect width="43" height="43" fill="white"/>
</clipPath>
</defs>
</svg>
