<svg version="1.2" xmlns="http://www.w3.org/2000/svg" viewBox="0 0 496 496" width="496" height="496">
	<title>Neues Projekt</title>
	<style>
		tspan { white-space:pre } 
		.s0 { fill: #000000;stroke: #000000;stroke-linecap: round;stroke-linejoin: round;stroke-width: 2 } 
	</style>
	<path id="Ebene 2" fill-rule="evenodd" class="s0" d="m246.5 1.1c7.7 0 20.1 0.6 27.5 1.4 7.4 0.7 18.7 2.5 25 3.9 6.3 1.4 15.3 3.6 20 5 4.7 1.3 12.1 3.9 16.5 5.6 4.4 1.7 11.2 4.5 15 6.2 3.8 1.7 11 5.3 16 8.1 5 2.7 13.7 8.1 19.5 12 5.8 3.9 13.7 9.5 17.5 12.5 3.8 3.1 12.6 11.2 19.5 18.1 6.9 6.9 16.4 17.8 21.2 24.1 4.7 6.3 10.8 15.1 13.6 19.5 2.7 4.4 7.4 12.9 10.5 19 3.1 6.1 7.7 16.4 10.2 23 2.6 6.6 6.4 18.7 8.5 27 2.1 8.2 4.6 20.4 5.6 27 1.4 8.9 1.8 17.9 1.8 34.5 0 16.6-0.4 25.6-1.8 34.5-1 6.6-3.5 18.7-5.6 27-2.1 8.2-5.9 20.4-8.5 27-2.5 6.6-7.1 17-10.2 23-3.1 6-7.8 14.6-10.5 19-2.8 4.4-8.9 13.2-13.6 19.5-4.7 6.3-14.5 17.4-21.7 24.5-7.1 7.2-18.2 16.9-24.5 21.6-6.3 4.7-15.1 10.8-19.5 13.6-4.4 2.8-12.5 7.4-18 10.2-5.5 2.8-15.6 7.4-22.5 10.1-6.9 2.6-16.5 6-21.5 7.3-5 1.4-13.5 3.5-19 4.7-5.5 1.2-16.1 2.8-23.5 3.5-7.4 0.8-19.1 1.5-26 1.5-6.9 0-18.6-0.7-26-1.5-7.4-0.7-18-2.3-23.5-3.5-5.5-1.2-14-3.3-19-4.7-5-1.3-14.6-4.7-21.5-7.3-6.9-2.7-17-7.3-22.5-10.1-5.5-2.8-13.6-7.5-18-10.3-4.4-2.8-10.5-6.8-13.5-8.9-3-2.1-10-7.5-15.4-12-5.4-4.5-14.2-12.7-19.4-18.2-5.2-5.5-13.2-15-17.7-21-4.6-6-10.5-14.6-13.3-19-2.7-4.4-7.4-13-10.5-19-3-6-7.3-15.5-9.5-21-2.2-5.5-5.4-14.7-7-20.5-1.7-5.8-4-15-5.1-20.5-1.1-5.5-2.6-14-3.3-19-0.7-5.1-1.3-18.4-1.3-30.5 0-12.1 0.6-25.4 1.3-30.5 0.7-4.9 2.2-13.5 3.3-19 1.1-5.5 3.3-14.5 4.9-20 1.6-5.5 4.5-14.3 6.5-19.5 2.1-5.2 6.4-14.8 9.6-21.3 3.2-6.4 8.2-15.4 11-20 2.8-4.5 9-13.4 13.7-19.7 4.8-6.3 14.3-17.2 21.2-24.1 6.9-6.9 15.6-15 19.5-18.1 3.9-3 11.7-8.6 17.5-12.5 5.8-3.9 14.5-9.3 19.5-12 5-2.8 12.1-6.4 16-8.1 3.9-1.7 10.6-4.5 15-6.2 4.4-1.7 11.8-4.3 16.5-5.6 4.7-1.4 13.7-3.6 20-5 6.3-1.4 16.9-3.1 23.5-3.9 6.6-0.7 18.3-1.3 26-1.4zm-159 148.6c-0.5 0.3-0.8 43.1-0.7 95l0.2 94.3h132v-33h-95v-48h86v-32h-86v-44h94v-33c-100.5 0-130 0.3-130.5 0.7zm162.5 189.3h37l0.5-121.3 93.5 121.3h27l-0.5-189.5-36-0.5-1 123.1-95-123.1h-25.5z"/>
</svg>