<svg width="42" height="42" viewBox="0 0 42 42" fill="none" xmlns="http://www.w3.org/2000/svg">
<g clip-path="url(#clip0_235_266)">
<path fill-rule="evenodd" clip-rule="evenodd" d="M20.9374 0C9.35957 0 0 9.625 0 21.5324C0 31.0507 5.997 39.1077 14.3164 41.9593C15.3566 42.1737 15.7376 41.496 15.7376 40.9259C15.7376 40.4268 15.7033 38.7157 15.7033 36.9329C9.879 38.2165 8.66614 34.3661 8.66614 34.3661C7.73014 31.8706 6.34329 31.2292 6.34329 31.2292C4.437 29.9101 6.48214 29.9101 6.48214 29.9101C8.59671 30.0528 9.70629 32.1204 9.70629 32.1204C11.5779 35.3999 14.5937 34.4733 15.807 33.9028C15.9801 32.5124 16.5351 31.5499 17.1244 31.0153C12.4791 30.5161 7.59171 28.6624 7.59171 20.3914C7.59171 18.0386 8.42314 16.1136 9.74057 14.6164C9.53271 14.0818 8.80457 11.8711 9.94886 8.91231C9.94886 8.91231 11.7167 8.34181 15.7029 11.1226C17.4095 10.6512 19.1695 10.4115 20.9374 10.4094C22.7053 10.4094 24.5074 10.6593 26.1716 11.1226C30.1581 8.34181 31.926 8.91231 31.926 8.91231C33.0703 11.8711 32.3417 14.0818 32.1339 14.6164C33.486 16.1136 34.2831 18.0386 34.2831 20.3914C34.2831 28.6624 29.3957 30.4802 24.7157 31.0153C25.4786 31.6925 26.1369 32.9757 26.1369 35.0079C26.1369 37.8954 26.1026 40.2128 26.1026 40.9255C26.1026 41.496 26.484 42.1737 27.5237 41.9598C35.8431 39.1073 41.8401 31.0507 41.8401 21.5324C41.8744 9.625 32.4806 0 20.9374 0Z" fill="white"/>
</g>
<defs>
<clipPath id="clip0_235_266">
<rect width="42" height="42" fill="white"/>
</clipPath>
</defs>
</svg>
