<svg width="42" height="42" viewBox="0 0 42 42" fill="none" xmlns="http://www.w3.org/2000/svg">
<g clip-path="url(#clip0_235_268)">
<path d="M21 0C9.38 0 0 9.38 0 21C0 32.62 9.38 42 21 42C32.62 42 42 32.62 42 21C42 9.38 32.62 0 21 0ZM9.38 7.7C9.94 7.28 10.64 7 11.2 7C11.76 7 12.6 7.28 13.02 7.7C13.44 8.26 13.72 8.82 13.72 9.52C13.72 10.22 13.44 10.92 12.88 11.34C12.6 11.9 11.9 12.18 11.2 12.18C10.5 12.18 9.8 11.9 9.38 11.48C8.96 10.92 8.68 10.22 8.68 9.52C8.68 8.82 8.96 8.26 9.38 7.7ZM13.86 30.24H8.68V14.14H13.86V30.24ZM33.32 30.24H28.14V21.7C28.14 16.52 21.98 16.94 21.98 21.7V30.24H16.94V14.14H22.12V16.24C24.22 12.32 33.46 12.04 33.46 20.02V30.24H33.32Z" fill="white"/>
</g>
<defs>
<clipPath id="clip0_235_268">
<rect width="42" height="42" fill="white"/>
</clipPath>
</defs>
</svg>
