<svg width="155" height="30" viewBox="0 0 155 30" fill="none" xmlns="http://www.w3.org/2000/svg">
<path d="M0.63 30L12.39 0.347999H18.354L29.988 30H23.016L14.112 5.388H16.506L7.476 30H0.63ZM7.308 24.624V19.248H23.478V24.624H7.308ZM40.3065 17.778V12.906H46.5645C47.8805 12.906 48.8885 12.57 49.5885 11.898C50.3165 11.226 50.6805 10.316 50.6805 9.168C50.6805 8.104 50.3305 7.222 49.6305 6.522C48.9305 5.822 47.9225 5.472 46.6065 5.472H40.3065V0.347999H47.3625C49.3225 0.347999 51.0445 0.725999 52.5285 1.482C54.0125 2.21 55.1745 3.232 56.0145 4.548C56.8545 5.864 57.2745 7.376 57.2745 9.084C57.2745 10.82 56.8545 12.346 56.0145 13.662C55.1745 14.95 53.9985 15.958 52.4865 16.686C50.9745 17.414 49.1965 17.778 47.1525 17.778H40.3065ZM35.2665 30V0.347999H41.8605V30H35.2665ZM51.3945 30L42.1545 17.232L48.2025 15.594L59.2065 30H51.3945ZM64.1908 30V0.347999H68.8108L70.7848 6.27V30H64.1908ZM84.6448 30L67.1728 7.614L68.8108 0.347999L86.2828 22.734L84.6448 30ZM84.6448 30L82.8808 24.078V0.347999H89.4748V30H84.6448ZM101.751 30V24.204H109.101C110.893 24.204 112.461 23.854 113.805 23.154C115.149 22.426 116.185 21.376 116.913 20.004C117.641 18.632 118.005 17.008 118.005 15.132C118.005 13.256 117.627 11.646 116.871 10.302C116.143 8.958 115.107 7.922 113.763 7.194C112.447 6.466 110.893 6.102 109.101 6.102H101.541V0.347999H109.185C111.425 0.347999 113.483 0.711999 115.359 1.44C117.263 2.14 118.915 3.162 120.315 4.506C121.743 5.822 122.835 7.39 123.591 9.21C124.375 11.002 124.767 12.99 124.767 15.174C124.767 17.33 124.375 19.318 123.591 21.138C122.835 22.958 121.757 24.526 120.357 25.842C118.957 27.158 117.305 28.18 115.401 28.908C113.525 29.636 111.481 30 109.269 30H101.751ZM97.2986 30V0.347999H103.893V30H97.2986ZM138.329 30V0.767998H144.923V30H138.329ZM129.047 6.102V0.347999H154.205V6.102H129.047Z" fill="white"/>
</svg>
