<svg width="43" height="43" viewBox="0 0 43 43" fill="none" xmlns="http://www.w3.org/2000/svg">
<path fill-rule="evenodd" clip-rule="evenodd" d="M21.8675 0.0101877C22.8231 0.0285464 24.0267 0.111161 24.5321 0.184595C25.0374 0.25803 25.7632 0.386541 26.14 0.469155C26.5167 0.54259 27.2425 0.735357 27.7479 0.891406C28.2532 1.04746 29.1169 1.35955 29.6774 1.58904C30.2286 1.80934 31.0831 2.20405 31.5609 2.46108C32.0387 2.70892 32.8288 3.17707 33.3066 3.48916C33.7844 3.80126 34.5929 4.39792 35.0983 4.80181C35.6036 5.2057 36.4122 5.94923 36.89 6.44492C37.3769 6.94978 38.0201 7.66577 38.3233 8.04212C38.6265 8.41848 39.1318 9.09775 39.435 9.55672C39.7382 10.0065 40.1976 10.7776 40.4549 11.2549C40.7122 11.7322 41.1073 12.5584 41.3278 13.0908C41.5483 13.6232 41.8699 14.4677 42.0261 14.9725C42.1915 15.4774 42.4212 16.3403 42.5406 16.9002C42.66 17.451 42.8071 18.2771 42.8714 18.7361C42.9449 19.2226 43 20.3608 43 21.4899C43 22.6189 42.9449 23.7572 42.8714 24.2437C42.8071 24.6935 42.66 25.5196 42.5406 26.0796C42.4212 26.6303 42.1915 27.5024 42.0261 28.0072C41.8699 28.5121 41.5483 29.3566 41.3278 29.889C41.1073 30.4214 40.7397 31.2016 40.5009 31.6331C40.2712 32.0645 39.8577 32.7621 39.5821 33.1936C39.2972 33.625 38.8011 34.3226 38.4611 34.7541C38.1303 35.1855 37.4412 35.9657 36.9359 36.489C36.4306 37.0122 35.6036 37.7741 35.0983 38.178C34.5929 38.5818 33.7844 39.1785 33.3066 39.4906C32.8288 39.8027 32.0387 40.2708 31.5609 40.5187C31.0831 40.7757 30.2286 41.1704 29.6774 41.3907C29.1169 41.6202 28.2532 41.9323 27.7479 42.0884C27.2425 42.2444 26.5167 42.4372 26.14 42.5106C25.7632 42.5932 25.0374 42.7217 24.5321 42.7952C24.0267 42.8686 22.9333 42.9512 22.0972 42.9788C20.9671 43.0247 20.2504 42.9971 19.2489 42.887C18.5139 42.7952 17.5216 42.6483 17.0438 42.5473C16.566 42.4464 15.7575 42.2444 15.2521 42.0884C14.7468 41.9323 13.8739 41.6202 13.3226 41.3907C12.7622 41.1704 11.9169 40.7757 11.4391 40.5187C10.9613 40.2617 10.2171 39.8302 9.78526 39.5549C9.35342 39.2703 8.65513 38.7746 8.22329 38.4442C7.79145 38.1045 7.03803 37.4436 6.53269 36.9571C6.03654 36.4798 5.28312 35.672 4.86966 35.1671C4.4562 34.6623 3.86816 33.8728 3.56496 33.423C3.26175 32.9641 2.80235 32.2022 2.54509 31.7249C2.28782 31.2475 1.89274 30.4214 1.67222 29.889C1.45171 29.3566 1.13013 28.5121 0.973932 28.0072C0.808547 27.5024 0.578846 26.6303 0.459402 26.0796C0.339957 25.5196 0.192949 24.6935 0.128632 24.2437C0.0551282 23.7572 0 22.6189 0 21.4899C0 20.3608 0.0551282 19.2226 0.128632 18.7361C0.192949 18.2771 0.339957 17.451 0.459402 16.9002C0.578846 16.3403 0.808547 15.4774 0.973932 14.9725C1.13013 14.4677 1.45171 13.6232 1.67222 13.0908C1.89274 12.5584 2.28782 11.7322 2.54509 11.2549C2.80235 10.7776 3.26175 10.0065 3.56496 9.55672C3.86816 9.09775 4.3735 8.41848 4.67671 8.04212C4.97991 7.66577 5.62308 6.94978 6.11004 6.44492C6.58782 5.94923 7.39637 5.2057 7.90171 4.80181C8.40705 4.39792 9.2156 3.80126 9.69338 3.48916C10.1712 3.17707 10.9154 2.73646 11.3472 2.50697C11.7791 2.26831 12.5784 1.89196 13.1389 1.66247C13.6902 1.43299 14.5814 1.10253 15.1143 0.937303C15.6472 0.762895 16.5109 0.54259 17.0438 0.432438C17.5767 0.322286 18.4863 0.175416 19.0652 0.101981C19.791 0.0101877 20.6731 -0.0173504 21.8675 0.0101877ZM7.25855 9.96979C7.14829 10.0157 7.01966 10.135 6.95534 10.236C6.87265 10.3737 6.84509 11.1998 6.84509 13.155C6.8359 15.7344 6.84509 15.8997 7.01966 16.12L7.19423 16.3494H35.8977C36.2468 15.8997 36.256 15.7252 36.256 13.1367C36.256 10.5481 36.2468 10.3737 36.0722 10.1534L35.8977 9.92389C13.5707 9.89635 7.35962 9.92389 7.25855 9.96979ZM7.25855 18.4148C7.14829 18.4607 7.01966 18.58 6.95534 18.681C6.87265 18.8187 6.84509 19.6448 6.84509 21.6C6.8359 24.1794 6.84509 24.3447 7.01966 24.565L7.19423 24.7945H35.8977C36.2468 24.3447 36.256 24.207 36.2284 21.5174C36.2009 18.9564 36.1825 18.681 36.0355 18.5341C35.8793 18.3781 35.1626 18.3689 21.6562 18.3505C13.5707 18.3414 7.35962 18.3689 7.25855 18.4148ZM7.25855 26.768C7.14829 26.8139 7.01966 26.9332 6.95534 27.0342C6.87265 27.1719 6.84509 27.998 6.84509 29.9533C6.8359 32.5327 6.84509 32.6979 7.01966 32.9182L7.19423 33.1477H35.8977C36.2468 32.6979 36.256 32.5235 36.256 29.9349C36.256 27.3463 36.2468 27.1719 36.0722 26.9516L35.8977 26.7221C13.5707 26.6946 7.35962 26.7221 7.25855 26.768Z" fill="#131A3F"/>
</svg>
