<svg width="67" height="67" viewBox="0 0 67 67" fill="none" xmlns="http://www.w3.org/2000/svg">
<g clip-path="url(#clip0_349_45)">
<path fill-rule="evenodd" clip-rule="evenodd" d="M5.68043 0H61.3196L62.7761 0.67C63.5626 1.0487 64.6987 1.89348 65.2522 2.53435C65.8057 3.17522 66.4465 4.22391 66.6213 4.83565C66.9126 5.70957 67 12.497 67 33.5C67 54.503 66.9126 61.2904 66.6213 62.1643C66.4465 62.7761 65.8057 63.8248 65.2522 64.4657C64.6987 65.1065 63.5626 65.9513 61.3196 67H5.68043L4.22391 66.33C3.40826 65.9513 2.3013 65.1065 1.74783 64.4657C1.19435 63.8248 0.553478 62.7761 0.378696 62.1643C0.0873913 61.2904 0 54.503 0 33.5C0 12.497 0.0873913 5.70957 0.378696 4.83565C0.553478 4.22391 1.19435 3.17522 1.74783 2.53435C2.3013 1.89348 3.40826 1.0487 4.22391 0.67L5.68043 0ZM13.1087 13.4874C12.7883 14.0117 12.5261 14.4778 12.5261 14.5652C12.497 14.6526 13.7787 15.3226 15.3517 16.0509C16.9248 16.8083 18.4978 17.4783 18.8765 17.5948C19.3426 17.7113 19.5465 17.6239 19.663 17.2743C19.7504 16.983 19.7213 16.6917 19.5757 16.6043C19.4591 16.517 18.2648 15.6722 16.9248 14.7109C15.5848 13.7496 14.4487 12.8757 14.3904 12.7591C14.3322 12.6426 14.1283 12.5261 13.9826 12.5261C13.8078 12.5261 13.4291 12.963 13.1087 13.4874ZM30.2957 12.9922C29.4217 13.2252 27.9361 13.8661 26.9748 14.3613C26.0426 14.8857 24.5861 16.0217 23.7413 16.8957C22.9257 17.7696 21.8187 19.2843 21.3526 20.2457C20.8574 21.207 20.2748 22.8383 20.1 23.887C19.867 25.023 19.7796 26.5961 19.8961 27.8196C20.0417 29.2761 20.3913 30.4704 21.0613 31.8978C21.6148 33.0339 23.0422 35.4517 24.2365 37.287C25.4309 39.1222 26.6252 41.1904 26.8874 41.8896C27.1496 42.5596 27.47 43.8413 27.5865 44.7443C27.7904 46.1426 27.8778 46.3465 28.4022 46.23C28.7226 46.1426 31.3443 45.6474 34.2574 45.123L39.53 44.1326C40.0543 41.6857 40.7243 40.2874 41.5109 39.1222C42.2391 38.0443 43.55 36.1509 44.4239 34.9565C45.2978 33.7622 46.3174 32.0435 46.6378 31.1696C46.9874 30.2957 47.337 28.577 47.4243 27.3826C47.4826 26.1883 47.3952 24.4696 47.2204 23.5957C47.0457 22.7217 46.4922 21.1487 45.9678 20.1C45.4726 19.0513 44.3657 17.5365 43.5791 16.7209C42.5887 15.7304 41.2487 14.7983 39.6174 14.0117C37.4035 12.9339 36.85 12.7883 34.5196 12.6717C32.6552 12.5552 31.4317 12.6717 30.2957 12.9922ZM51.9978 13.6039C51.1822 14.1865 49.8422 15.2061 48.9974 15.847C47.7157 16.8374 47.5117 17.0996 47.8322 17.4491C48.1526 17.7696 48.7643 17.5657 51.5026 16.2839C53.3087 15.41 54.7652 14.6817 54.7652 14.6526C54.7652 14.5943 54.5322 14.0991 54.2409 13.5457C53.9787 12.9922 53.6874 12.5261 53.6 12.5261C53.5126 12.5552 52.7843 13.0213 51.9978 13.6039ZM9.93348 25.46L9.90435 26.8C12.06 26.5961 13.633 26.4504 14.7691 26.363C16.7791 26.2174 16.8957 26.1883 16.8957 25.5183C16.8957 24.8774 16.7791 24.8191 14.6526 24.6443C13.4 24.5278 11.827 24.3822 11.1861 24.2948L9.99174 24.12L9.93348 25.46ZM53.5126 24.5278C50.7452 24.7609 50.6578 24.79 50.6578 25.4891C50.6578 26.1591 50.7743 26.2174 52.3474 26.363C53.2504 26.4213 54.8235 26.567 55.843 26.6543L57.6491 26.8C57.6491 24.3239 57.5909 24.1783 57.0083 24.2365C56.6296 24.2365 55.0565 24.3822 53.5126 24.5278ZM15.41 34.8691C13.8952 35.5683 12.6135 36.2091 12.5843 36.2965C12.5261 36.3548 12.7591 36.8791 13.0796 37.4326C13.468 38.1123 13.7884 38.3842 14.0409 38.2483C14.2739 38.1026 15.4391 37.287 16.6917 36.413C17.9152 35.5391 18.9639 34.6652 18.993 34.4904C19.0222 34.3157 18.8474 34.0243 18.5852 33.8496C18.2648 33.6457 17.4783 33.8787 15.41 34.8691ZM48.6187 34.1117C48.4439 34.403 48.3565 34.7235 48.4148 34.7817C48.4439 34.84 49.6383 35.6848 51.0365 36.6752C52.4348 37.6365 53.6291 38.423 53.6874 38.3939C53.7165 38.3357 54.0661 37.8113 54.4157 37.2287C54.8526 36.413 54.94 36.0926 54.6778 36.0052C54.4739 35.9178 53.0757 35.3643 51.59 34.7235C48.9974 33.5874 48.8517 33.5583 48.6187 34.1117ZM36.0926 45.7639C34.7526 46.0552 32.393 46.5213 30.8783 46.8126C29.0139 47.1622 28.0526 47.5117 27.8196 47.8322C27.5865 48.24 27.6157 48.473 28.0235 48.8517C28.5187 49.347 28.7517 49.347 33.4126 48.3857C36.0926 47.8613 38.5687 47.3078 38.9474 47.1622C39.297 47.0165 39.5883 46.667 39.5883 46.4048C39.6174 46.1135 39.4426 45.7057 39.2387 45.5017C39.0348 45.2978 38.8017 45.1522 38.7143 45.1813C38.6561 45.2104 37.4617 45.4726 36.0926 45.7639ZM33.3252 49.2304C30.9365 49.6965 28.6643 50.2209 28.3148 50.3957C27.9361 50.5413 27.6448 50.9491 27.6448 51.2696C27.6448 51.6191 27.907 51.9104 28.3148 52.027C28.6643 52.1143 31.1987 51.7648 33.9078 51.2404C36.6461 50.7452 39.0348 50.1626 39.2678 49.9878C39.4717 49.813 39.5883 49.4052 39.5591 49.0848C39.4717 48.677 39.2096 48.473 38.5687 48.4439C38.1026 48.4148 35.743 48.7643 33.3252 49.2304ZM33.7622 52.7261C32.4222 52.9883 31.1404 53.2796 30.9365 53.3378C30.6452 53.4252 30.7035 53.7165 31.0822 54.4739C31.3443 55.0274 31.9852 55.6683 32.4513 55.9013C32.9465 56.1052 33.7039 56.2217 34.1991 56.1052C34.6943 56.0178 35.3643 55.6391 35.7139 55.2896C36.0926 54.9109 36.4422 54.0952 36.5296 53.3961C36.617 52.697 36.5878 52.1726 36.4713 52.1726C36.3548 52.2017 35.1313 52.4348 33.7622 52.7261Z" fill="#7A6E9F"/>
</g>
<defs>
<clipPath id="clip0_349_45">
<rect width="67" height="67" fill="white"/>
</clipPath>
</defs>
</svg>
