<svg width="68" height="67" viewBox="0 0 68 67" fill="none" xmlns="http://www.w3.org/2000/svg">
<g clip-path="url(#clip0_349_38)">
<path fill-rule="evenodd" clip-rule="evenodd" d="M34.4395 0.087433C61.2585 0.145694 62.6361 0.174824 63.6033 0.699172C64.1602 0.990477 65.1275 1.71874 65.743 2.30135C66.4757 2.97135 67.0033 3.84526 67.2671 4.80656C67.6481 6.03004 67.7068 10.3996 67.7068 33.5C67.7068 56.6005 67.6481 60.97 67.2671 62.1935C67.0033 63.1548 66.4757 64.0287 65.743 64.6987C65.1275 65.2814 64.1602 66.0096 63.6033 66.3009C62.6361 66.8253 61.2878 66.8544 5.42228 66.8544L4.24987 66.2135C3.60504 65.864 2.66711 65.1648 2.13952 64.6114C1.61193 64.087 0.996417 63.0674 0.732624 62.3392C0.322279 61.174 0.292969 57.7366 0.292969 33.5C0.292969 12.497 0.3809 5.70961 0.674003 4.83569C0.849865 4.22396 1.49469 3.17526 2.05159 2.53439C2.60849 1.89352 3.45849 1.16526 3.89814 0.932216C4.3378 0.699172 5.07055 0.378737 5.51021 0.262216C5.94987 0.145694 18.9637 0.0583026 34.4395 0.087433ZM30.9223 11.3318C31.3619 11.5066 31.1861 11.594 30.1016 11.7396C29.3395 11.8561 28.4895 12.06 28.1964 12.2057C27.9326 12.3222 27.2292 12.7009 26.643 12.9922C26.0568 13.3127 25.2068 13.8079 24.7378 14.1283C24.2688 14.4487 23.4481 15.177 22.8619 15.7596C22.305 16.3131 21.455 17.2453 21.0154 17.7987C20.5464 18.3231 19.755 19.634 19.2861 20.6827C18.7878 21.7313 18.2602 23.0422 18.0843 23.5957C17.9378 24.1492 17.7326 25.7222 17.674 27.0913C17.5861 28.4605 17.7033 30.15 17.8792 30.8783C18.0843 31.6066 18.4361 32.8592 18.6999 33.6457C18.9637 34.4614 19.755 36.2092 20.4292 37.5783C21.1033 38.9474 22.0119 40.637 22.4516 41.3653C22.8912 42.0935 23.7706 43.4044 24.4154 44.2783C25.0602 45.1522 25.6757 45.9387 25.7637 46.0261C25.8809 46.1135 26.3206 46.6961 26.8188 47.337C27.2878 47.9779 27.7568 48.5605 27.8447 48.6479C27.9326 48.7353 28.3137 49.2013 28.6947 49.6674C29.0464 50.1335 30.424 51.6774 31.743 53.1048C33.0619 54.5031 34.205 55.6683 34.293 55.6683C34.3809 55.6683 34.8206 55.2896 35.3188 54.8235C35.8171 54.3574 36.9309 53.2213 37.8102 52.26C38.6895 51.2987 39.9499 49.8713 40.5947 49.0848C41.2395 48.2692 42.1775 47.104 42.6464 46.4631C43.1154 45.8222 43.7309 45.0357 44.024 44.7153C44.3171 44.3948 44.5516 44.0453 44.5516 43.9287C44.5516 43.7831 44.7275 43.5209 44.9326 43.3461C45.1671 43.1422 45.6947 42.3848 46.1637 41.6566C46.6326 40.9283 47.6292 39.1805 48.3619 37.724C49.0947 36.2966 49.8861 34.5196 50.0912 33.7914C50.2964 33.0631 50.6188 32.0727 50.824 31.6066C50.9999 31.1405 51.1464 29.3635 51.1171 27.674C51.1171 25.6057 50.9412 24.1783 50.6188 23.2461C50.355 22.4596 49.8275 21.2361 49.4757 20.4787C49.124 19.6922 48.655 18.9057 48.4499 18.7309C48.2447 18.527 48.0688 18.2648 48.0688 18.1483C48.0981 18.0027 47.4533 17.2744 46.6912 16.4587C45.9292 15.6722 44.6981 14.5944 43.9654 14.1283C43.2326 13.6331 42.0309 12.934 41.2395 12.5844C40.4775 12.2348 39.3637 11.8561 38.7188 11.7396C37.8981 11.6231 37.7223 11.5066 38.074 11.3318C38.3378 11.2153 36.6964 11.0987 34.4395 11.0987C32.1826 11.0987 30.5999 11.2153 30.9223 11.3318ZM34.7912 19.5757C35.9637 19.634 37.0775 19.8379 37.2826 20.0418C37.4878 20.2457 37.8981 20.3913 38.1619 20.3913C38.455 20.3913 39.3343 21.0613 40.155 21.8479C40.9464 22.6635 41.855 23.7996 42.1188 24.4114C42.4706 25.1396 42.6464 26.2174 42.6464 27.8196C42.6464 29.4218 42.4706 30.4996 42.1188 31.257C41.855 31.8396 41.005 32.9757 40.2137 33.7914C39.4516 34.5779 38.6309 35.2479 38.3964 35.2479C38.1326 35.2479 37.7516 35.4227 37.5757 35.6266C37.3119 35.8596 36.2568 35.9761 34.4395 35.9761C32.6223 35.9761 31.5671 35.8596 31.3033 35.5974C31.0981 35.3935 30.7464 35.2479 30.5412 35.2479C30.3654 35.2479 29.6033 34.6944 28.8706 34.0244C28.1378 33.3253 27.1999 32.0727 26.8188 31.257C26.2619 30.1209 26.0861 29.2179 26.0861 27.8196C26.0861 26.4505 26.2912 25.5183 26.7895 24.4114C27.1999 23.5083 28.0792 22.3722 28.8999 21.644C29.6619 20.9448 30.4533 20.3913 30.5999 20.3913C30.7757 20.3913 31.3033 20.1874 31.8016 19.9544C32.4171 19.6048 33.2964 19.5174 34.7912 19.5757Z" fill="#7A6E9F"/>
</g>
<defs>
<clipPath id="clip0_349_38">
<rect width="68" height="67" fill="white"/>
</clipPath>
</defs>
</svg>
