<svg width="67" height="67" viewBox="0 0 67 67" fill="none" xmlns="http://www.w3.org/2000/svg">
<g clip-path="url(#clip0_349_28)">
<path fill-rule="evenodd" clip-rule="evenodd" d="M5.68043 0H61.3196L62.7761 0.67C63.5626 1.0487 64.6987 1.89348 65.2522 2.53435C65.8057 3.17522 66.4465 4.22391 66.6213 4.83565C66.9126 5.70957 67 12.497 67 33.5C67 54.503 66.9126 61.2904 66.6213 62.1643C66.4465 62.7761 65.8057 63.8248 65.2522 64.4657C64.6987 65.1065 63.5626 65.9513 61.3196 67H5.68043L4.22391 66.33C3.40826 65.9513 2.3013 65.1065 1.74783 64.4657C1.19435 63.8248 0.553478 62.7761 0.378696 62.1643C0.0873913 61.2904 0 54.503 0 33.5C0 12.497 0.0873913 5.70957 0.378696 4.83565C0.553478 4.22391 1.19435 3.17522 1.74783 2.53435C2.3013 1.89348 3.40826 1.0487 4.22391 0.67L5.68043 0ZM31.8687 11.6522C31.2278 11.9726 30.383 12.5843 29.9752 13.0213C29.5674 13.4874 28.4896 15.4683 27.6157 17.4783C26.7417 19.4883 25.227 23.0422 24.2948 25.4017C23.3626 27.7904 22.5178 29.713 22.4304 29.713C22.343 29.713 22.1683 29.043 22.0517 28.1983C21.9061 27.3535 21.2943 24.353 20.6535 21.5565C20.0417 18.76 19.3426 16.2839 19.1678 16.08C18.9057 15.8178 18.4687 15.7596 17.7696 15.9052C17.2161 16.0217 16.313 16.5461 15.7887 17.0122C15.177 17.5948 14.6526 18.4396 14.3904 19.3717C14.1574 20.1874 13.4583 24.4404 12.7883 28.8391C12.1474 33.2378 11.3026 39.0057 10.8948 41.6565C10.5161 44.3074 9.84609 47.9196 9.43826 49.6674C9.03044 51.4443 8.62261 53.3087 8.50609 53.8039C8.3313 54.5904 8.38957 54.7652 8.88478 54.94C9.20522 55.0565 9.96261 54.9983 10.5452 54.8235C11.157 54.6196 12.0017 54.1826 12.4096 53.833C12.9922 53.3087 13.3417 52.4348 14.0117 49.6674C14.4778 47.7448 15.3226 43.2296 15.847 39.6174C16.4004 36.0052 16.9539 32.3348 17.0704 31.4609L17.2743 29.8587C18.2939 33.4417 18.7891 34.4904 19.2843 35.0148C19.867 35.5974 20.3913 35.8304 21.0322 35.8304C21.5565 35.8304 22.5761 35.5391 23.3043 35.1896C24.0035 34.8109 24.9648 33.9952 25.4017 33.3543C25.8678 32.7135 26.7126 30.8491 27.3243 29.2178C27.907 27.5865 28.4313 26.2757 28.4604 26.3048C28.5187 26.3339 28.4022 28.8683 28.2274 31.8978C28.0526 34.9565 27.9652 39.6757 28.0526 42.3848C28.14 45.6474 28.373 47.9487 28.6935 49.0848C28.9557 50.0461 29.4217 51.4152 29.7422 52.1435C30.0626 52.8717 30.7326 53.9496 31.1987 54.5613C31.8396 55.377 32.2474 55.6391 32.9174 55.6391C33.3835 55.6391 34.0826 55.4935 34.4322 55.3187C34.8109 55.1439 35.3935 54.707 35.7722 54.3574C36.1217 54.037 36.413 53.5126 36.413 53.2504C36.413 52.9591 36.0635 52.3183 35.6557 51.7939C35.2187 51.2696 34.6361 50.3374 34.3448 49.7548C34.0243 49.143 33.5583 47.7739 33.2961 46.6961C32.8591 45.0648 32.7717 43.5791 32.83 38.1609C32.8591 34.5487 33.1504 27.7322 33.4709 23.013C33.8204 18.2939 34.0826 13.8078 34.1117 13.0504C34.1117 11.9726 33.9952 11.623 33.5583 11.39C33.1213 11.1861 32.6843 11.2443 31.8687 11.6522ZM48.7935 20.0709C48.2983 20.1874 47.5117 20.5078 47.0457 20.7409C46.5504 21.003 45.5891 21.7604 44.89 22.4887C44.22 23.1878 43.2004 24.6735 42.647 25.7804C42.1226 26.9165 41.4235 28.8683 41.1322 30.15C40.6078 32.393 40.5204 32.5096 39.2387 33.3252C38.5104 33.7622 37.6948 34.3448 37.4617 34.6361C37.2287 34.8983 36.9957 35.3643 36.9957 35.6848C36.9665 36.0052 37.1704 36.4422 37.4326 36.6461C37.6657 36.85 38.1609 36.9374 38.5104 36.8791C38.8891 36.8209 39.3843 36.7043 39.6174 36.5878C39.9961 36.4422 40.0835 36.8791 40.2583 39.2387C40.3457 40.8117 40.637 42.7635 40.87 43.55C41.1322 44.3657 41.773 45.5891 42.2974 46.3174C42.8217 47.0457 43.783 47.8904 44.4239 48.1817C45.0648 48.5022 46.1135 48.8226 46.7543 48.8809C47.5409 48.9974 48.5313 48.8226 49.813 48.3565C51.4443 47.7739 52.0852 47.3078 54.3283 45.0357C55.7848 43.5791 57.5035 41.6274 58.1152 40.7243C59.1639 39.2387 59.2222 39.0057 58.8435 38.5978C58.6104 38.3357 57.9696 38.1609 57.387 38.1609C56.8335 38.1609 56.0761 38.3357 55.7557 38.5396C55.4061 38.7435 54.3574 39.8796 53.3961 41.0739C52.4348 42.2683 51.0657 43.6957 50.3665 44.22C49.6674 44.7443 48.8517 45.1522 48.5604 45.1522C48.2983 45.1522 47.6865 44.8026 47.2204 44.3657C46.6961 43.8413 46.1717 42.8217 45.7639 41.5109C45.4143 40.3748 45.0648 38.2483 44.9774 36.7043L44.8026 33.937C50.5996 30.9074 53.4543 29.3052 54.9109 28.4604C56.6296 27.4409 57.7074 26.567 58.0278 25.9843L58.5522 25.0522C55.9596 22.3139 54.5613 21.207 53.7457 20.8283C52.93 20.4204 51.7065 20.0417 50.9783 19.9835C50.25 19.8961 49.2596 19.9543 48.7935 20.0709ZM49.1139 23.5957C49.7839 23.5957 50.483 23.887 51.3278 24.557C51.9978 25.0813 52.5804 25.6348 52.6387 25.7804C52.697 25.9552 51.0948 26.8874 49.0848 27.907C47.0748 28.8974 45.4435 29.5965 45.4435 29.4217C45.4435 29.2761 45.6474 28.5187 45.9096 27.7613C46.1717 27.0039 46.7543 25.7513 47.2496 24.9939C48.007 23.7704 48.24 23.5957 49.1139 23.5957Z" fill="#7A6E9F"/>
</g>
<defs>
<clipPath id="clip0_349_28">
<rect width="67" height="67" fill="white"/>
</clipPath>
</defs>
</svg>
