<svg width="67" height="67" viewBox="0 0 67 67" fill="none" xmlns="http://www.w3.org/2000/svg">
<g clip-path="url(#clip0_349_55)">
<path fill-rule="evenodd" clip-rule="evenodd" d="M5.68043 0H61.3196L62.7761 0.67C63.5917 1.0487 64.6987 1.89348 65.2522 2.53435C65.8057 3.17522 66.4465 4.22391 66.6213 4.83565C66.9126 5.70957 67 12.497 67 33.5C67 54.503 66.9126 61.2904 66.6213 62.1643C66.4465 62.7761 65.8057 63.8248 65.2522 64.4657C64.6987 65.1065 63.5626 65.9513 61.3196 67H5.68043L4.22391 66.33C3.40826 65.9513 2.3013 65.1065 1.74783 64.4657C1.19435 63.8248 0.553478 62.7761 0.378696 62.1643C0.0873913 61.2904 0 54.503 0 33.5C0 12.497 0.0873913 5.70957 0.378696 4.83565C0.553478 4.22391 1.19435 3.17522 1.74783 2.53435C2.3013 1.89348 3.43739 1.0487 4.22391 0.67L5.68043 0ZM31.1696 9.90435C31.5191 10.1374 31.4609 10.1957 30.8783 10.1957C30.4704 10.1957 29.7713 10.5743 29.2761 11.0696C28.7809 11.5357 28.2565 12.0891 28.1109 12.293C27.9652 12.497 27.6448 13.1378 27.47 13.6913C27.2661 14.2448 27.0913 15.1478 27.0913 15.6722C27.0913 16.1965 27.237 16.6626 27.3826 16.75C27.5283 16.8374 27.6739 17.3035 27.6739 17.7696C27.6739 18.2648 27.4991 18.7017 27.3243 18.7891C27.1204 18.8765 24.9648 18.993 22.5761 19.0222C18.3522 19.1096 18.1483 19.1387 16.75 19.9543C15.9635 20.4204 15.1187 20.9739 14.9439 21.1778C14.74 21.3817 14.5652 21.7022 14.5652 21.8478C14.5652 22.0226 14.4196 22.1391 14.2739 22.1391C14.1283 22.1391 13.9243 22.547 13.837 23.013C13.7496 23.5083 13.5457 23.9452 13.4 24.0326C13.2252 24.12 13.1087 25.5474 13.1087 27.47C13.1087 29.2761 13.2252 30.8783 13.3417 31.053C13.4583 31.2278 14.5361 31.3735 15.7304 31.4026C17.5365 31.4317 18.09 31.5774 19.0222 32.1891C19.6922 32.6552 20.333 33.4417 20.7117 34.3157C21.1778 35.3643 21.2943 36.0343 21.1778 37.1413C21.1196 37.957 20.8865 38.627 20.7117 38.6852C20.537 38.7143 20.3913 38.9183 20.3913 39.1222C20.3913 39.3261 20.0417 39.8213 19.6048 40.2583C19.1387 40.6952 18.6143 41.0739 18.4396 41.0739C18.2357 41.0739 18.0317 41.2196 18.0026 41.3943C17.9443 41.5983 16.983 41.7439 15.5848 41.8022L13.2543 41.8604C13.1087 50.4248 13.167 50.9491 13.7204 52.1435C14.07 52.8717 14.8565 53.9496 15.4683 54.5613C16.1091 55.1439 16.8374 55.6391 17.1287 55.6391C17.3909 55.6391 17.7696 55.7557 17.9152 55.9013C18.0609 56.0761 20.3039 56.2217 22.8674 56.2509L27.5283 56.3091C27.703 52.0561 27.8196 51.5609 28.4896 50.6578C28.9265 50.0752 29.6257 49.3178 30.0917 48.9683C30.7326 48.473 31.2861 48.3565 33.1504 48.3565H35.3935C37.3161 50.4248 37.8696 51.3861 38.1026 52.3183C38.3357 53.2213 38.3939 54.0078 38.2191 54.4739C38.1026 54.8817 38.0152 55.4352 38.0735 55.7265C38.1317 55.9887 38.3357 56.2509 38.5396 56.2509C38.7143 56.2509 40.3457 56.2509 42.0935 56.2217C43.8413 56.1926 45.4143 56.0761 45.56 55.9013C45.7348 55.7557 46.1135 55.6391 46.4048 55.6391C46.7252 55.6391 47.5117 55.0857 48.1817 54.4157C48.8517 53.7165 49.6091 52.6678 49.9004 52.0852C50.3083 51.1822 50.3957 50.1335 50.3957 46.463V41.9478C51.5317 41.7148 52.0561 41.7148 52.2891 41.8022C52.5222 41.8896 52.7261 42.0643 52.7261 42.1809C52.7261 42.2974 53.0757 42.3848 53.5417 42.3557C53.9787 42.3557 54.9109 42.1517 55.6391 41.9187C56.3383 41.7148 57.387 41.0448 57.9696 40.4913C58.523 39.9378 59.1639 39.1804 59.3678 38.8309C59.5426 38.4522 59.7174 37.3743 59.7174 36.413C59.7174 35.4517 59.63 34.6361 59.5135 34.607C59.3678 34.5487 59.0474 34.0535 58.7561 33.5C58.4648 32.9174 57.6783 32.1309 56.95 31.6939C55.843 31.0239 55.3187 30.8783 53.6 30.8783C52.4348 30.8783 51.5609 30.9948 51.5609 31.1696C51.5609 31.3443 51.2987 31.2278 50.9783 30.9657C50.4539 30.4996 50.3957 30.0917 50.3957 27.47C50.3957 25.1104 50.2791 24.2074 49.813 23.1587C49.4926 22.4304 48.7352 21.3817 48.1526 20.8283C47.5409 20.2748 46.8126 19.8087 46.5504 19.8087C46.2591 19.8087 45.9678 19.663 45.9387 19.4591C45.8513 19.197 44.8609 19.0804 42.3557 19.0222C40.4622 18.993 38.86 18.8765 38.8309 18.7309C38.8309 18.6143 38.5687 18.3813 38.2483 18.2648C37.8696 18.0609 37.8113 17.9443 38.1026 17.8278C38.3065 17.7113 38.5687 16.983 38.6561 16.1674C38.7435 15.1478 38.6561 14.3322 38.2774 13.4C37.9861 12.6717 37.4035 11.7396 36.9374 11.3026C36.5004 10.8657 35.6557 10.3996 35.1022 10.3122C34.2865 10.1374 34.1991 10.05 34.5778 9.87522C34.8983 9.7587 34.1991 9.64217 32.9174 9.64217C31.4026 9.64217 30.8783 9.70043 31.1696 9.90435Z" fill="#7A6E9F"/>
</g>
<defs>
<clipPath id="clip0_349_55">
<rect width="67" height="67" fill="white"/>
</clipPath>
</defs>
</svg>
